<svg width="0" height="0" class="hidden">
  <symbol xmlns="http://www.w3.org/2000/svg" viewBox="0 0 24 24" id="cart">
    <path fill-rule="evenodd" clip-rule="evenodd" d="M4.79797 4H2V2H6.44013L7.07398 5.19462C7.16705 5.6625 7.57777 6 8.05486 6H18.114C20.2086 6 21.6585 8.09212 20.923 10.0534L19.423 14.0534C18.9839 15.2243 17.8645 16 16.614 16H11.2843C8.89805 16 6.84434 14.3137 6.37993 11.9731L4.79797 4ZM7.62449 7.96918L8.34169 11.5839C8.62034 12.9882 9.85256 14 11.2843 14H16.614C17.0308 14 17.404 13.7414 17.5503 13.3511L19.0503 9.35112C19.2955 8.69737 18.8122 8 18.114 8H8.05486C7.90907 8 7.76535 7.98951 7.62449 7.96918Z"></path>
    <path d="M10 19.5C10 20.3284 9.32843 21 8.5 21C7.67157 21 7 20.3284 7 19.5C7 18.6716 7.67157 18 8.5 18C9.32843 18 10 18.6716 10 19.5Z" ></path>
    <path d="M17.5 21C18.3284 21 19 20.3284 19 19.5C19 18.6716 18.3284 18 17.5 18C16.6716 18 16 18.6716 16 19.5C16 20.3284 16.6716 21 17.5 21Z" ></path>
  </symbol>
  <symbol xmlns="http://www.w3.org/2000/svg" viewBox="0 0 24 24" id="core">
    <path fill-rule="evenodd" clip-rule="evenodd" d="M12.2426 4.75736C14.5858 2.41421 18.3848 2.41421 20.7279 4.75736C23.0711 7.10051 23.0711 10.8995 20.7279 13.2426L12.2426 21.728L3.75736 13.2427C1.41421 10.8995 1.41421 7.10054 3.75736 4.75739C6.1005 2.41426 9.89947 2.41424 12.2426 4.75736ZM19.3137 6.17158C17.7516 4.60948 15.2189 4.60947 13.6568 6.17157L12.2426 7.58579L10.8284 6.17161C9.26633 4.60951 6.73367 4.60951 5.17157 6.17161C3.60948 7.7337 3.60948 10.2664 5.17157 11.8285L12.2426 18.8995L19.3137 11.8284C20.8758 10.2663 20.8758 7.73367 19.3137 6.17158Z" ></path>
  </symbol>
  <symbol xmlns="http://www.w3.org/2000/svg" viewBox="0 0 24 24" id="message">
    <path d="M17 9C17 9.55228 16.5523 10 16 10H8C7.44772 10 7 9.55228 7 9C7 8.44772 7.44772 8 8 8H16C16.5523 8 17 8.44772 17 9Z" ></path>
    <path d="M7 13C7 13.5523 7.44772 14 8 14H16C16.5523 14 17 13.5523 17 13C17 12.4477 16.5523 12 16 12H8C7.44772 12 7 12.4477 7 13Z" ></path>
    <path fill-rule="evenodd" clip-rule="evenodd" d="M6 3C3.79086 3 2 4.79086 2 7V19C2 20.8811 3.93624 22.1395 5.65525 21.3754L10.2243 19.3448C10.7357 19.1174 11.2892 19 11.8489 19H18C20.2091 19 22 17.2091 22 15V7C22 4.79086 20.2091 3 18 3H6ZM18 5H6C4.89543 5 4 5.89543 4 7V19C4 19.4338 4.44653 19.724 4.84297 19.5478L9.41203 17.5171C10.1792 17.1762 11.0093 17 11.8489 17H18C19.1046 17 20 16.1046 20 15V7C20 5.89543 19.1046 5 18 5Z" ></path>
  </symbol>
  <symbol version="1.1" id="close" xmlns="http://www.w3.org/2000/svg" xmlns:xlink="http://www.w3.org/1999/xlink" x="0px" y="0px" xml:space="preserve" viewBox="0 0 378.303 378.303">

    <polygon points="378.303,28.285 350.018,0 189.151,160.867 28.285,0 0,28.285 160.867,189.151 0,350.018 

	28.285,378.302 189.151,217.436 350.018,378.302 378.303,350.018 217.436,189.151 "></polygon>

    <g></g>

    <g></g>

    <g></g>

    <g></g>

    <g></g>

    <g></g>

    <g></g>

    <g></g>

    <g></g>

    <g></g>

    <g></g>

    <g></g>

    <g></g>

    <g></g>

    <g></g>

  </symbol>

</svg>